<?xml version="1.0" encoding="UTF-8" standalone="no"?>
<!-- Created with Inkscape (http://www.inkscape.org/) -->

<svg
   width="63.5mm"
   height="63.5mm"
   viewBox="0 0 63.5 63.5"
   version="1.1"
   id="svg1"
   xml:space="preserve"
   sodipodi:docname="ChannelManagement.svg"
   inkscape:version="1.4.2 (f4327f4, 2025-05-13)"
   xmlns:inkscape="http://www.inkscape.org/namespaces/inkscape"
   xmlns:sodipodi="http://sodipodi.sourceforge.net/DTD/sodipodi-0.dtd"
   xmlns="http://www.w3.org/2000/svg"
   xmlns:svg="http://www.w3.org/2000/svg"><sodipodi:namedview
     id="namedview1"
     pagecolor="#ffffff"
     bordercolor="#000000"
     borderopacity="0.25"
     inkscape:showpageshadow="2"
     inkscape:pageopacity="0.0"
     inkscape:pagecheckerboard="0"
     inkscape:deskcolor="#d1d1d1"
     inkscape:document-units="mm"
     showgrid="false"
     inkscape:zoom="2.2501035"
     inkscape:cx="231.3227"
     inkscape:cy="90.440286"
     inkscape:window-width="1920"
     inkscape:window-height="1137"
     inkscape:window-x="-8"
     inkscape:window-y="-8"
     inkscape:window-maximized="1"
     inkscape:current-layer="layer1" /><defs
     id="defs1" /><g
     inkscape:label="Layer 1"
     inkscape:groupmode="layer"
     id="layer1"
     transform="translate(-102.92292,-11.641666)"><path
       style="fill:#030303;stroke:none"
       d="m 118.79792,46.0375 h 13.22917 c 0,1.524689 0.48582,4.079002 -0.36009,5.411814 -1.92676,3.035793 -5.05196,3.713448 -4.8976,8.081936 0.28833,8.159959 11.90487,10.508834 15.15339,2.910376 1.19483,-2.794774 0.70466,-6.135099 -1.3159,-8.421724 -0.86439,-0.978219 -2.48406,-1.594533 -3.04515,-2.785312 -0.66159,-1.404076 -0.24299,-3.672397 -0.24299,-5.19709 4.95189,0 12.51753,1.48711 16.29799,-2.452223 2.48288,-2.587214 1.16232,-5.270134 2.46584,-8.036535 0.86001,-1.825187 3.29173,-2.590168 4.24274,-4.592654 2.41107,-5.076866 -1.23153,-11.143825 -6.86698,-11.342936 -5.99091,-0.211668 -10.04493,6.315586 -7.26474,11.607164 1.45857,2.776123 5.694,3.856996 4.0259,7.655145 -1.47512,3.358776 -9.86665,1.870372 -12.90075,1.870372 0,-1.524693 -0.4186,-3.793014 0.24299,-5.197091 0.56109,-1.190774 2.18076,-1.807096 3.04515,-2.785311 2.02056,-2.286621 2.51073,-5.62695 1.3159,-8.421724 -3.25233,-7.607352 -14.86475,-5.258505 -15.15339,2.910376 -0.15348,4.343638 2.98095,5.046123 4.8976,8.081039 0.8444,1.337072 0.36009,3.884914 0.36009,5.412711 h -13.22917 c 0,-1.524689 -0.4186,-3.793014 0.24299,-5.197091 0.56108,-1.190778 2.18076,-1.8071 3.04515,-2.785311 2.02056,-2.286617 2.51074,-5.626954 1.3159,-8.421724 -3.25234,-7.607344 -14.86475,-5.258513 -15.15339,2.910376 -0.0745,2.10902 0.7295,4.227383 2.18885,5.749903 1.24288,1.296667 2.95062,1.77253 3.05598,3.779062 0.16575,3.156319 0.0129,6.360228 0.0129,9.521035 0,1.444171 0.31042,3.320776 -0.15505,4.703839 -0.42419,1.260401 -2.06322,1.83698 -2.93965,2.754306 -2.17826,2.279891 -2.74014,5.802484 -1.50934,8.681398 3.40426,7.962696 15.74604,4.874945 15.13942,-3.704126 -0.27515,-3.891219 -3.12215,-4.498066 -4.88362,-7.287286 -0.84441,-1.337075 -0.36009,-3.884913 -0.36009,-5.412714 m -3.16624,-20.992509 c 3.20007,-0.661313 4.2338,4.283504 1.04082,4.943351 -3.20008,0.661313 -4.2338,-4.283504 -1.04082,-4.943351 m 18.52083,0 c 3.20007,-0.661313 4.2338,4.2835 1.04082,4.943351 -3.20007,0.661313 -4.2338,-4.283504 -1.04082,-4.943351 m 18.52083,0 c 3.20007,-0.661313 4.2338,4.283504 1.04082,4.943351 -3.20006,0.661313 -4.2338,-4.283504 -1.04082,-4.943351 m -37.04166,31.75 c 3.20007,-0.661313 4.23379,4.2835 1.04082,4.943351 -3.20007,0.661317 -4.2338,-4.2835 -1.04082,-4.943351 m 18.52083,0 c 3.20007,-0.661313 4.2338,4.2835 1.04082,4.943351 -3.20007,0.661317 -4.2338,-4.2835 -1.04082,-4.943351 z"
       id="path60871" /></g></svg>
