<?xml version="1.0" encoding="UTF-8" standalone="no"?>
<!-- Created with Inkscape (http://www.inkscape.org/) -->

<svg
   width="63.5mm"
   height="63.5mm"
   viewBox="0 0 63.5 63.5"
   version="1.1"
   id="svg1"
   xml:space="preserve"
   inkscape:version="1.4.2 (f4327f4, 2025-05-13)"
   sodipodi:docname="Close.svg"
   xmlns:inkscape="http://www.inkscape.org/namespaces/inkscape"
   xmlns:sodipodi="http://sodipodi.sourceforge.net/DTD/sodipodi-0.dtd"
   xmlns="http://www.w3.org/2000/svg"
   xmlns:svg="http://www.w3.org/2000/svg"><sodipodi:namedview
     id="namedview1"
     pagecolor="#ffffff"
     bordercolor="#000000"
     borderopacity="0.25"
     inkscape:showpageshadow="2"
     inkscape:pageopacity="0.0"
     inkscape:pagecheckerboard="0"
     inkscape:deskcolor="#d1d1d1"
     inkscape:document-units="mm"
     showgrid="false"
     inkscape:zoom="4.5002069"
     inkscape:cx="125.21646"
     inkscape:cy="126.32752"
     inkscape:window-width="1920"
     inkscape:window-height="1137"
     inkscape:window-x="-8"
     inkscape:window-y="-8"
     inkscape:window-maximized="1"
     inkscape:current-layer="layer1" /><defs
     id="defs1" /><g
     inkscape:label="Layer 1"
     inkscape:groupmode="layer"
     id="layer1"
     transform="translate(-49.477085,-64.293747)"><path
       style="fill:#000000"
       d="m 65.303333,114.5552 c -0.336988,-0.005 -0.897257,-0.16709 -1.245042,-0.35985 -0.347784,-0.19276 -0.790049,-0.63503 -0.982811,-0.98281 -0.192763,-0.34778 -0.354696,-0.90805 -0.359853,-1.24504 -0.0052,-0.33699 0.122246,-0.87277 0.283117,-1.19063 0.160871,-0.31785 3.462998,-3.76181 7.33806,-7.65323 l 7.045568,-7.075311 -7.187805,-7.212187 c -4.657445,-4.673243 -7.250798,-7.468329 -7.366743,-7.939791 -0.09842,-0.400182 -0.103471,-1.028289 -0.01123,-1.395792 0.09224,-0.367504 0.399773,-0.900257 0.683412,-1.183895 0.283638,-0.283639 0.816391,-0.591174 1.183895,-0.683412 0.367503,-0.09224 0.99561,-0.08718 1.395792,0.01123 0.471453,0.115943 3.265836,2.708587 7.9375,7.364457 l 7.209896,7.185519 7.209896,-7.185519 c 4.671664,-4.65587 7.466048,-7.248514 7.9375,-7.364457 0.400182,-0.09842 1.028289,-0.103471 1.395792,-0.01123 0.367504,0.09224 0.900257,0.399773 1.183895,0.683412 0.283639,0.283638 0.591174,0.816391 0.683412,1.183895 0.09224,0.367503 0.08718,0.99561 -0.01123,1.395792 -0.115943,0.471452 -2.708588,3.265836 -7.364458,7.9375 l -7.185519,7.209896 7.185519,7.209893 c 4.65587,4.67167 7.248515,7.46605 7.364458,7.9375 0.09842,0.40019 0.10347,1.02829 0.01123,1.3958 -0.09224,0.3675 -0.399773,0.90025 -0.683412,1.18389 -0.283638,0.28364 -0.816391,0.59117 -1.183895,0.68341 -0.367503,0.0922 -0.99561,0.0872 -1.395792,-0.0112 -0.471462,-0.11595 -3.266548,-2.7093 -7.939791,-7.36674 l -7.212187,-7.18781 -7.075313,7.04557 c -3.891422,3.87506 -7.335377,7.17719 -7.653232,7.33806 -0.317855,0.16087 -0.853636,0.28827 -1.190625,0.28311 z"
       id="path125" /></g></svg>
