<?xml version="1.0" encoding="UTF-8" standalone="no"?>
<!-- Created with Inkscape (http://www.inkscape.org/) -->

<svg
   width="63.5mm"
   height="63.5mm"
   viewBox="0 0 63.5 63.5"
   version="1.1"
   id="svg1"
   xml:space="preserve"
   inkscape:version="1.4.2 (f4327f4, 2025-05-13)"
   sodipodi:docname="History.svg"
   xmlns:inkscape="http://www.inkscape.org/namespaces/inkscape"
   xmlns:sodipodi="http://sodipodi.sourceforge.net/DTD/sodipodi-0.dtd"
   xmlns="http://www.w3.org/2000/svg"
   xmlns:svg="http://www.w3.org/2000/svg"><sodipodi:namedview
     id="namedview1"
     pagecolor="#ffffff"
     bordercolor="#000000"
     borderopacity="0.25"
     inkscape:showpageshadow="2"
     inkscape:pageopacity="0.0"
     inkscape:pagecheckerboard="0"
     inkscape:deskcolor="#d1d1d1"
     inkscape:document-units="mm"
     showgrid="false"
     inkscape:zoom="2.2501035"
     inkscape:cx="101.99531"
     inkscape:cy="101.10646"
     inkscape:window-width="1920"
     inkscape:window-height="1137"
     inkscape:window-x="-8"
     inkscape:window-y="-8"
     inkscape:window-maximized="1"
     inkscape:current-layer="layer1" /><defs
     id="defs1" /><g
     inkscape:label="Layer 1"
     inkscape:groupmode="layer"
     id="layer1"
     transform="translate(-48.418751,-22.754168)"><path
       style="fill:#000000"
       d="m 80.962501,80.591672 c -3.060203,0.08254 -4.291505,0.0033 -6.085417,-0.391801 -1.236927,-0.272406 -3.207892,-0.866753 -4.379922,-1.320771 -1.17203,-0.454019 -2.838905,-1.251442 -3.704167,-1.772051 -0.865261,-0.52061 -2.197897,-1.428106 -2.961413,-2.016657 -0.763516,-0.588552 -2.090407,-1.820745 -2.948647,-2.738206 -1.560437,-1.668112 -1.560437,-1.668112 -1.657149,1.378507 -0.09671,3.04662 -0.09671,3.04662 -0.958132,3.816297 -0.600264,0.536336 -1.139633,0.769678 -1.779112,0.769678 -0.640124,0 -1.179043,-0.233517 -1.781763,-0.772047 -0.86407,-0.772046 -0.86407,-0.772046 -0.86407,-8.48837 0,-7.716324 0,-7.716324 0.86407,-8.48837 0.86407,-0.772047 0.86407,-0.772047 8.396347,-0.772047 7.532276,0 7.532276,0 8.36628,0.745182 0.694544,0.620576 0.834004,0.938396 0.834004,1.900652 0,0.962255 -0.13946,1.280075 -0.834004,1.900651 -0.834004,0.745182 -0.834004,0.745182 -5.063163,0.745182 -2.326037,0 -4.229159,0.06784 -4.229159,0.150766 0,0.08292 0.346241,0.654011 0.769425,1.269087 0.423184,0.615077 1.448863,1.808701 2.279286,2.652499 0.830423,0.843797 2.39427,2.111526 3.475216,2.817175 1.080946,0.705649 2.644877,1.537561 3.475402,1.848695 0.830525,0.311133 2.224421,0.761648 3.097546,1.001144 1.080277,0.296318 2.644215,0.435448 4.894792,0.435448 2.250576,0 3.814515,-0.13913 4.894791,-0.435448 0.873125,-0.239496 2.267021,-0.690011 3.097547,-1.001144 0.830525,-0.311134 2.393725,-1.142569 3.473777,-1.847634 1.080052,-0.705066 2.644743,-1.96295 3.477091,-2.795298 0.832349,-0.832349 2.084022,-2.387526 2.781496,-3.45595 0.697475,-1.068423 1.639841,-2.969846 2.094148,-4.225383 0.457739,-1.265022 0.966189,-3.392627 1.140409,-4.772073 0.23593,-1.867952 0.24102,-3.070672 0.0204,-4.818577 -0.16171,-1.281115 -0.60938,-3.27553 -0.99483,-4.432033 -0.385448,-1.156503 -1.187904,-2.93617 -1.783237,-3.954816 -0.654381,-1.119681 -2.03467,-2.797604 -3.490445,-4.243096 -1.927215,-1.913601 -2.895441,-2.641842 -4.849159,-3.647244 -1.342626,-0.690928 -3.366688,-1.507813 -4.497917,-1.8153 -1.589771,-0.432126 -2.807728,-0.557596 -5.364071,-0.552587 -2.505134,0.0049 -3.806148,0.140506 -5.364071,0.559067 -1.131229,0.303923 -3.155292,1.116349 -4.497917,1.805391 -1.993208,1.022924 -2.906749,1.716439 -4.978642,3.779536 -2.227251,2.217796 -2.705904,2.866408 -3.914799,5.304858 -1.056192,2.130433 -1.503114,3.425818 -1.916968,5.55625 -0.458981,2.362737 -0.655585,2.886917 -1.314896,3.505729 -0.537936,0.504894 -1.056117,0.727605 -1.692916,0.727605 -0.635563,0 -1.177682,-0.232301 -1.763366,-0.75561 -0.766739,-0.685081 -0.842077,-0.888824 -0.807142,-2.182812 0.02119,-0.784962 0.327448,-2.564291 0.680567,-3.954064 0.353119,-1.389773 1.066661,-3.413836 1.585648,-4.497917 0.518987,-1.084081 1.452272,-2.744962 2.073966,-3.690847 0.621694,-0.945886 2.025659,-2.627485 3.119923,-3.736888 1.094264,-1.109403 2.919683,-2.622294 4.056487,-3.36198 1.136804,-0.739686 2.684617,-1.636736 3.439584,-1.993445 0.754967,-0.356709 2.109162,-0.896336 3.009323,-1.199171 0.900162,-0.302836 2.74563,-0.744396 4.101042,-0.981246 1.761566,-0.307823 3.294408,-0.388914 5.374802,-0.284341 1.776897,0.08932 3.894552,0.399319 5.437277,0.795959 1.389773,0.357315 3.413836,1.074289 4.497917,1.593277 1.084081,0.518987 2.744962,1.450488 3.690847,2.070003 0.945886,0.619514 2.677815,2.083011 3.848733,3.252215 1.17092,1.169204 2.74572,3.068591 3.49957,4.220862 0.75385,1.15227 1.73773,2.976851 2.18641,4.054625 0.44868,1.077773 1.05524,2.873444 1.34791,3.99038 0.31426,1.199361 0.59112,3.330674 0.67622,5.205791 0.1048,2.309148 0.0263,3.849376 -0.28779,5.647876 -0.23754,1.360082 -0.82972,3.532013 -1.31595,4.826512 -0.48623,1.2945 -1.46653,3.329479 -2.17844,4.522175 -0.79357,1.329518 -2.21569,3.106746 -3.675621,4.593431 -1.309687,1.33369 -3.132405,2.927852 -4.050483,3.54258 -0.918078,0.614729 -2.525422,1.520477 -3.571875,2.012774 -1.046453,0.492296 -2.974204,1.209814 -4.283892,1.594483 -1.964874,0.577105 -3.052078,0.717494 -6.217708,0.802882 z m 4.44491,-18.15805 c -0.334649,-0.0044 -0.846577,-0.137901 -1.137619,-0.296612 -0.291041,-0.158712 -1.757943,-1.494544 -3.259782,-2.968517 -1.501839,-1.473973 -2.900823,-3.00146 -3.108854,-3.394415 -0.294966,-0.557169 -0.378239,-2.001764 -0.378239,-6.561577 0,-4.543179 0.08408,-6.009704 0.377033,-6.576212 0.207368,-0.401005 0.68922,-0.871343 1.070783,-1.045194 0.381562,-0.173852 0.92067,-0.316094 1.198018,-0.316094 0.277347,0 0.816455,0.142242 1.198018,0.316094 0.381563,0.173851 0.863415,0.644189 1.070783,1.045194 0.287141,0.555271 0.377032,1.916394 0.377032,5.709018 0,4.979918 0,4.979918 2.268041,7.223035 1.247423,1.233715 2.438048,2.564626 2.645833,2.957582 0.207786,0.392956 0.377793,0.952901 0.377793,1.244322 0,0.291421 -0.142242,0.842044 -0.316094,1.223606 -0.173852,0.381563 -0.644189,0.863415 -1.045194,1.070783 -0.401005,0.207368 -1.002904,0.373412 -1.337552,0.368987 z"
       id="path1" /></g></svg>
