<?xml version="1.0" encoding="UTF-8" standalone="no"?>
<!-- Created with Inkscape (http://www.inkscape.org/) -->

<svg
   width="63.5mm"
   height="63.5mm"
   viewBox="0 0 63.5 63.5"
   version="1.1"
   id="svg1"
   xml:space="preserve"
   inkscape:version="1.4.2 (f4327f4, 2025-05-13)"
   sodipodi:docname="Home.svg"
   xmlns:inkscape="http://www.inkscape.org/namespaces/inkscape"
   xmlns:sodipodi="http://sodipodi.sourceforge.net/DTD/sodipodi-0.dtd"
   xmlns="http://www.w3.org/2000/svg"
   xmlns:svg="http://www.w3.org/2000/svg"><sodipodi:namedview
     id="namedview1"
     pagecolor="#ffffff"
     bordercolor="#000000"
     borderopacity="0.25"
     inkscape:showpageshadow="2"
     inkscape:pageopacity="0.0"
     inkscape:pagecheckerboard="0"
     inkscape:deskcolor="#d1d1d1"
     inkscape:document-units="mm"
     showgrid="false"
     inkscape:zoom="3.1821268"
     inkscape:cx="96.633484"
     inkscape:cy="106.06114"
     inkscape:window-width="1920"
     inkscape:window-height="1137"
     inkscape:window-x="-8"
     inkscape:window-y="-8"
     inkscape:window-maximized="1"
     inkscape:current-layer="layer1" /><defs
     id="defs1" /><g
     inkscape:label="Layer 1"
     inkscape:groupmode="layer"
     id="layer1"
     transform="translate(-100.27708,-107.95)"><path
       style="fill:#000000"
       d="m 132.55624,166.07965 c -10.98092,0.0401 -14.98496,-0.0288 -15.8762,-0.27334 -0.65551,-0.17982 -1.74119,-0.70491 -2.41262,-1.16687 -0.67143,-0.46196 -1.58659,-1.41052 -2.03369,-2.10791 -0.44709,-0.6974 -0.93608,-1.80377 -1.08664,-2.45862 -0.15652,-0.68074 -0.27651,-4.73144 -0.28021,-9.45885 -0.006,-8.26823 -0.006,-8.26823 -1.75272,-8.26823 -1.63315,0 -1.80451,-0.0583 -2.64583,-0.89958 -0.66378,-0.66378 -0.89959,-1.13113 -0.89959,-1.78289 0,-0.81275 1.01983,-1.90312 12.7692,-13.6525 11.95247,-11.95246 12.82804,-12.7692 13.68914,-12.7692 0.86109,0 1.73666,0.81674 13.68913,12.7692 11.74938,11.74938 12.7692,12.83975 12.7692,13.6525 0,0.65176 -0.23581,1.11911 -0.89958,1.78289 -0.83964,0.83964 -1.01488,0.89958 -2.62984,0.89958 -1.73025,0 -1.73025,0 -1.81239,8.92969 -0.0813,8.83444 -0.089,8.94358 -0.72321,10.23221 -0.35258,0.71638 -1.10873,1.77018 -1.68033,2.34178 -0.57159,0.57159 -1.5928,1.29515 -2.26935,1.6079 -1.207,0.55795 -1.50579,0.56964 -15.91447,0.62224 z m -12.96239,-5.21299 c 1.81356,0 1.81356,0 1.89787,-7.60677 0.079,-7.12633 0.12023,-7.68446 0.65295,-8.83686 0.31275,-0.67655 1.0363,-1.69776 1.60789,-2.26935 0.5716,-0.5716 1.6254,-1.32775 2.34179,-1.68033 1.22786,-0.60432 1.5679,-0.64106 5.93273,-0.64106 4.17937,0 4.74998,0.0554 5.8603,0.56863 0.67655,0.31275 1.69776,1.0363 2.26935,1.6079 0.5716,0.57159 1.32774,1.6254 1.68033,2.34178 0.62619,1.2723 0.64301,1.479 0.72537,8.90929 0.0843,7.60677 0.0843,7.60677 1.89788,7.60677 1.67237,0 1.87694,-0.0634 2.62766,-0.8141 0.81411,-0.8141 0.81411,-0.8141 0.81411,-10.86531 0,-6.8816 0.0932,-10.23345 0.29555,-10.62913 0.16255,-0.31785 0.5495,-0.78236 0.85989,-1.03225 0.55826,-0.44943 0.46939,-0.54938 -8.23305,-9.25992 -8.79739,-8.80558 -8.79739,-8.80558 -17.59479,0 -8.70243,8.71054 -8.7913,8.81049 -8.23305,9.25992 0.31039,0.24989 0.69734,0.7144 0.8599,1.03225 0.20235,0.39568 0.29555,3.74753 0.29555,10.62913 0,10.05121 0,10.05121 0.8141,10.86531 0.75072,0.75072 0.9553,0.8141 2.62767,0.8141 z m 12.43323,0 c 5.29166,0 5.29166,0 5.29166,-7.12339 0,-7.1234 0,-7.1234 -0.8141,-7.9375 -0.8141,-0.81411 -0.8141,-0.81411 -4.51827,-0.81411 -3.70417,0 -3.70417,0 -4.47756,0.7734 -0.7734,0.7734 -0.7734,0.7734 -0.7734,7.9375 0,7.1641 0,7.1641 5.29167,7.1641 z"
       id="path1" /></g></svg>
