<?xml version="1.0" encoding="UTF-8" standalone="no"?>
<!-- Created with Inkscape (http://www.inkscape.org/) -->

<svg
   width="63.5mm"
   height="63.5mm"
   viewBox="0 0 63.5 63.5"
   version="1.1"
   id="svg1"
   xml:space="preserve"
   inkscape:version="1.4.2 (f4327f4, 2025-05-13)"
   sodipodi:docname="Menu.svg"
   xmlns:inkscape="http://www.inkscape.org/namespaces/inkscape"
   xmlns:sodipodi="http://sodipodi.sourceforge.net/DTD/sodipodi-0.dtd"
   xmlns="http://www.w3.org/2000/svg"
   xmlns:svg="http://www.w3.org/2000/svg"><sodipodi:namedview
     id="namedview1"
     pagecolor="#ffffff"
     bordercolor="#000000"
     borderopacity="0.25"
     inkscape:showpageshadow="2"
     inkscape:pageopacity="0.0"
     inkscape:pagecheckerboard="0"
     inkscape:deskcolor="#d1d1d1"
     inkscape:document-units="mm"
     showgrid="false"
     inkscape:zoom="2.2501035"
     inkscape:cx="66.44139"
     inkscape:cy="127.32748"
     inkscape:window-width="1920"
     inkscape:window-height="1137"
     inkscape:window-x="-8"
     inkscape:window-y="-8"
     inkscape:window-maximized="1"
     inkscape:current-layer="layer1" /><defs
     id="defs1" /><g
     inkscape:label="Layer 1"
     inkscape:groupmode="layer"
     id="layer1"
     transform="translate(-110.33125,-32.014584)"><path
       style="fill:#000000"
       d="m 142.00266,82.540625 c -17.76457,-0.0076 -22.13618,-0.07703 -22.64645,-0.359853 -0.34778,-0.192762 -0.79005,-0.635027 -0.98281,-0.982811 -0.19276,-0.347785 -0.3547,-1.025202 -0.35985,-1.505371 -0.005,-0.480169 0.16028,-1.20113 0.36765,-1.602135 0.20737,-0.401005 0.68922,-0.871343 1.07078,-1.045194 0.52005,-0.236949 6.18605,-0.316094 22.62927,-0.316094 16.44323,0 22.10922,0.07914 22.62927,0.316094 0.38156,0.173851 0.86342,0.644189 1.07078,1.045194 0.20737,0.401005 0.37704,1.098113 0.37704,1.549129 0,0.451015 -0.16967,1.148123 -0.37704,1.549128 -0.20736,0.401005 -0.68922,0.871343 -1.07078,1.045194 -0.52065,0.237226 -6.18648,0.313755 -22.70786,0.306719 z m 0,-15.875 c -17.76457,-0.0076 -22.13618,-0.07703 -22.64645,-0.359853 -0.34778,-0.192762 -0.79005,-0.635027 -0.98281,-0.982811 -0.19276,-0.347785 -0.3547,-1.025202 -0.35985,-1.505371 -0.005,-0.480169 0.16028,-1.20113 0.36765,-1.602135 0.20737,-0.401005 0.68922,-0.871343 1.07078,-1.045194 0.52005,-0.236949 6.18605,-0.316094 22.62927,-0.316094 16.44323,0 22.10922,0.07915 22.62927,0.316094 0.38156,0.173851 0.86342,0.644189 1.07078,1.045194 0.20737,0.401005 0.37704,1.098113 0.37704,1.549129 0,0.451015 -0.16967,1.148123 -0.37704,1.549128 -0.20736,0.401005 -0.68922,0.871343 -1.07078,1.045194 -0.52065,0.237226 -6.18648,0.313755 -22.70786,0.306719 z m 0,-15.875 c -17.76457,-0.0076 -22.13618,-0.07703 -22.64645,-0.359853 -0.34778,-0.192762 -0.79005,-0.635027 -0.98281,-0.982811 -0.19276,-0.347785 -0.3547,-1.025202 -0.35985,-1.505371 -0.005,-0.480169 0.16028,-1.20113 0.36765,-1.602135 0.20737,-0.401005 0.68922,-0.871343 1.07078,-1.045194 0.52005,-0.236949 6.18605,-0.316094 22.62927,-0.316094 16.44323,0 22.10922,0.07915 22.62927,0.316094 0.38156,0.173851 0.86342,0.644189 1.07078,1.045194 0.20737,0.401005 0.37704,1.098113 0.37704,1.549129 0,0.451015 -0.16967,1.148123 -0.37704,1.549128 -0.20736,0.401005 -0.68922,0.871343 -1.07078,1.045194 -0.52065,0.237226 -6.18648,0.313755 -22.70786,0.306719 z"
       id="path1" /></g></svg>
