<?xml version="1.0" encoding="UTF-8" standalone="no"?>
<!-- Created with Inkscape (http://www.inkscape.org/) -->

<svg
   width="63.5mm"
   height="63.5mm"
   viewBox="0 0 63.5 63.5"
   version="1.1"
   id="svg1"
   xml:space="preserve"
   inkscape:version="1.4.2 (f4327f4, 2025-05-13)"
   sodipodi:docname="Search.svg"
   xmlns:inkscape="http://www.inkscape.org/namespaces/inkscape"
   xmlns:sodipodi="http://sodipodi.sourceforge.net/DTD/sodipodi-0.dtd"
   xmlns="http://www.w3.org/2000/svg"
   xmlns:svg="http://www.w3.org/2000/svg"><sodipodi:namedview
     id="namedview1"
     pagecolor="#ffffff"
     bordercolor="#000000"
     borderopacity="0.25"
     inkscape:showpageshadow="2"
     inkscape:pageopacity="0.0"
     inkscape:pagecheckerboard="0"
     inkscape:deskcolor="#d1d1d1"
     inkscape:document-units="mm"
     showgrid="false"
     inkscape:zoom="2.2501035"
     inkscape:cx="187.76914"
     inkscape:cy="97.106646"
     inkscape:window-width="1920"
     inkscape:window-height="1137"
     inkscape:window-x="-8"
     inkscape:window-y="-8"
     inkscape:window-maximized="1"
     inkscape:current-layer="layer1" /><defs
     id="defs1" /><g
     inkscape:label="Layer 1"
     inkscape:groupmode="layer"
     id="layer1"
     transform="translate(-156.10417,-45.772915)"><path
       style="fill:#000000"
       d="m 211.61367,104.24484 c -0.48017,-5.4e-4 -1.23023,-0.22653 -1.66679,-0.5022 -0.43656,-0.27567 -3.87559,-3.59604 -7.64229,-7.378615 -6.84855,-6.8774 -6.84855,-6.8774 -8.39393,-5.878574 -0.84995,0.549354 -2.29998,1.300914 -3.22227,1.670133 -0.92229,0.369219 -2.58712,0.859319 -3.69961,1.089111 -1.11249,0.229792 -3.10432,0.417803 -4.42627,0.417803 -1.32196,0 -3.31379,-0.188011 -4.42628,-0.417803 -1.11249,-0.229792 -2.785,-0.722966 -3.71667,-1.095943 -0.93168,-0.372976 -2.56191,-1.244737 -3.62273,-1.937246 -1.06081,-0.692509 -2.60977,-1.94012 -3.44211,-2.772468 -0.83235,-0.832348 -2.07996,-2.381302 -2.77247,-3.442119 -0.69251,-1.060818 -1.56687,-2.69752 -1.94301,-3.637117 -0.37615,-0.939596 -0.88473,-2.699457 -1.13018,-3.9108 -0.33674,-1.661919 -0.40961,-2.952982 -0.29689,-5.260619 0.0822,-1.681997 0.3438,-3.772551 0.58142,-4.645676 0.23762,-0.873125 0.89685,-2.555853 1.46495,-3.739394 0.5681,-1.183542 1.70051,-2.989822 2.51646,-4.013957 0.81595,-1.024134 2.32148,-2.529661 3.34561,-3.345614 1.02414,-0.815953 2.83042,-1.94836 4.01396,-2.51646 1.18354,-0.568099 2.86627,-1.227325 3.73939,-1.464946 0.87313,-0.237621 2.96368,-0.49926 4.64568,-0.58142 2.30764,-0.11272 3.5987,-0.03986 5.26062,0.296891 1.21134,0.245449 2.9712,0.754028 3.9108,1.130174 0.9396,0.376146 2.5763,1.250501 3.63712,1.94301 1.06081,0.692509 2.60977,1.940119 3.44211,2.772467 0.83235,0.832349 2.07996,2.381302 2.77247,3.44212 0.69251,1.060817 1.56427,2.691041 1.93725,3.62272 0.37298,0.93168 0.86615,2.604184 1.09594,3.716677 0.22979,1.112493 0.41781,3.104316 0.41781,4.426273 0,1.321958 -0.18802,3.313781 -0.41781,4.426273 -0.22979,1.112493 -0.71989,2.777318 -1.08911,3.699612 -0.36922,0.922293 -1.12077,2.372307 -1.67012,3.222252 -0.99881,1.545356 -0.99881,1.545356 6.00141,8.526214 3.85012,3.839472 7.17094,7.302367 7.37959,7.695323 0.20865,0.392958 0.37937,1.071958 0.37937,1.508908 0,0.43694 -0.14224,1.10662 -0.3161,1.48819 -0.17385,0.38156 -0.64418,0.86341 -1.04519,1.07078 -0.401,0.20737 -1.12197,0.37659 -1.60213,0.37604 z M 183.41168,87.68941 c 1.12189,-0.06761 2.78876,-0.354339 3.70417,-0.637183 0.9154,-0.282843 2.37874,-0.942167 3.25186,-1.465165 0.87313,-0.522997 2.25646,-1.609433 3.07407,-2.414302 0.81762,-0.804868 1.92277,-2.196988 2.45589,-3.0936 0.53312,-0.896612 1.22834,-2.463641 1.54494,-3.482287 0.42075,-1.353761 0.57563,-2.528378 0.57563,-4.365625 0,-1.831162 -0.15557,-3.016347 -0.57302,-4.365625 -0.31517,-1.018646 -1.0016,-2.566458 -1.52542,-3.439583 -0.52381,-0.873125 -1.61091,-2.256457 -2.41578,-3.07407 -0.80487,-0.817614 -2.19699,-1.922762 -3.0936,-2.455885 -0.89662,-0.533123 -2.46364,-1.228347 -3.48229,-1.544942 -1.35376,-0.420749 -2.52838,-0.575628 -4.36562,-0.575628 -1.83725,0 -3.01187,0.154879 -4.36563,0.575628 -1.01865,0.316595 -2.58567,1.011819 -3.48229,1.544942 -0.89661,0.533123 -2.28873,1.638271 -3.0936,2.455885 -0.80487,0.817613 -1.89197,2.200945 -2.41578,3.07407 -0.52382,0.873125 -1.21025,2.420937 -1.52542,3.439583 -0.41745,1.349278 -0.57302,2.534463 -0.57302,4.365625 0,1.831162 0.15557,3.016348 0.57302,4.365625 0.31517,1.018646 1.00184,2.566459 1.52596,3.439584 0.52411,0.873125 1.51137,2.167773 2.1939,2.876996 0.68254,0.709223 1.93799,1.747106 2.7899,2.306407 0.8519,0.559301 2.20287,1.261586 3.00214,1.560632 0.79928,0.299047 2.06679,0.653549 2.81671,0.787781 0.74991,0.134233 2.28139,0.188744 3.40328,0.121137 z"
       id="path1" /></g></svg>
