<?xml version="1.0" encoding="UTF-8" standalone="no"?>
<!-- Created with Inkscape (http://www.inkscape.org/) -->

<svg
   width="63.5mm"
   height="63.5mm"
   viewBox="0 0 63.5 63.5"
   version="1.1"
   id="svg1"
   xml:space="preserve"
   inkscape:version="1.4.2 (f4327f4, 2025-05-13)"
   sodipodi:docname="Settings.svg"
   xmlns:inkscape="http://www.inkscape.org/namespaces/inkscape"
   xmlns:sodipodi="http://sodipodi.sourceforge.net/DTD/sodipodi-0.dtd"
   xmlns="http://www.w3.org/2000/svg"
   xmlns:svg="http://www.w3.org/2000/svg"><sodipodi:namedview
     id="namedview1"
     pagecolor="#ffffff"
     bordercolor="#000000"
     borderopacity="0.25"
     inkscape:showpageshadow="2"
     inkscape:pageopacity="0.0"
     inkscape:pagecheckerboard="0"
     inkscape:deskcolor="#d1d1d1"
     inkscape:document-units="mm"
     showgrid="false"
     inkscape:zoom="3.1821268"
     inkscape:cx="153.19943"
     inkscape:cy="105.43263"
     inkscape:window-width="1920"
     inkscape:window-height="1137"
     inkscape:window-x="-8"
     inkscape:window-y="-8"
     inkscape:window-maximized="1"
     inkscape:current-layer="layer1" /><defs
     id="defs1" /><g
     inkscape:label="Layer 1"
     inkscape:groupmode="layer"
     id="layer1"
     transform="translate(-132.29167,-45.508335)"><path
       style="fill:#000000"
       d="m 164.04167,103.7115 c -1.25996,0 -2.0735,-0.1675 -3.04271,-0.62647 -0.7276,-0.34456 -1.70259,-1.02801 -2.16665,-1.51877 -0.46405,-0.49077 -1.20143,-1.692007 -1.63862,-2.669427 -0.62188,-1.390323 -0.94714,-1.815338 -1.49437,-1.952684 -0.47692,-0.1197 -1.12788,0.02482 -2.04592,0.45421 -1.05475,0.493333 -1.7806,0.627885 -3.35044,0.621079 -1.52619,-0.0066 -2.25633,-0.143211 -3.06233,-0.572893 -0.58208,-0.310313 -1.4917,-1.020778 -2.02137,-1.578811 -0.52967,-0.558034 -1.18099,-1.431326 -1.44739,-1.940649 -0.34233,-0.6545 -0.48665,-1.51367 -0.49218,-2.930037 -0.006,-1.568583 0.12902,-2.296539 0.62196,-3.350439 0.42939,-0.918041 0.57391,-1.568998 0.45421,-2.045919 -0.13735,-0.54723 -0.56236,-0.87249 -1.95269,-1.49437 -0.97742,-0.437191 -2.17866,-1.174573 -2.66942,-1.638627 -0.49076,-0.464053 -1.17421,-1.439045 -1.51877,-2.16665 -0.43635,-0.921429 -0.62726,-1.795385 -0.62906,-2.879719 -0.001,-0.856242 0.13744,-2.024147 0.30857,-2.595345 0.17114,-0.571198 0.7933,-1.586288 1.38259,-2.255756 0.74166,-0.842568 1.66151,-1.486119 2.98856,-2.090873 1.50676,-0.686655 1.95443,-1.022334 2.09144,-1.568252 0.11824,-0.471078 -0.0283,-1.12787 -0.45543,-2.041037 -0.49334,-1.054747 -0.62789,-1.780594 -0.62108,-3.350439 0.007,-1.526185 0.14321,-2.256333 0.57289,-3.062329 0.31031,-0.582083 1.02078,-1.491698 1.57881,-2.021367 0.55804,-0.529669 1.43133,-1.180996 1.94065,-1.447394 0.6545,-0.342331 1.51367,-0.48665 2.93004,-0.492174 1.56858,-0.0061 2.29654,0.129016 3.35044,0.621953 0.91317,0.427113 1.56996,0.573669 2.04103,0.455436 0.54592,-0.137017 0.8816,-0.584684 1.56826,-2.091449 0.60475,-1.327046 1.2483,-2.246894 2.09087,-2.988552 0.66947,-0.589289 1.68456,-1.211455 2.25576,-1.38259 0.57119,-0.171135 1.7391,-0.309991 2.59534,-0.30857 1.08434,0.0018 1.95829,0.192711 2.87972,0.629058 0.7276,0.34456 1.7026,1.028006 2.16665,1.518769 0.46405,0.490764 1.20144,1.692004 1.63863,2.669424 0.62188,1.390324 0.94714,1.815339 1.49437,1.952685 0.47692,0.119699 1.12787,-0.02482 2.04592,-0.454211 1.0539,-0.492937 1.78185,-0.62807 3.35043,-0.621953 1.41637,0.0055 2.27554,0.149843 2.93004,0.492174 0.50932,0.266398 1.38262,0.917725 1.94065,1.447394 0.55803,0.529669 1.2685,1.439284 1.57881,2.021367 0.42968,0.805996 0.56628,1.536144 0.57289,3.062329 0.007,1.569845 -0.12774,2.295692 -0.62107,3.350439 -0.4294,0.918041 -0.57391,1.568998 -0.45421,2.045919 0.13734,0.54723 0.56236,0.87249 1.95268,1.49437 0.97742,0.437191 2.17866,1.174574 2.66942,1.638627 0.49077,0.464053 1.17421,1.439046 1.51877,2.16665 0.45897,0.969204 0.62648,1.782743 0.62648,3.042708 0,1.259966 -0.16751,2.073504 -0.62648,3.042708 -0.34456,0.727605 -1.028,1.702597 -1.51877,2.16665 -0.49076,0.464054 -1.692,1.201436 -2.66942,1.638627 -1.39032,0.62188 -1.81534,0.94714 -1.95268,1.49437 -0.1197,0.476921 0.0248,1.127878 0.45421,2.045919 0.49293,1.0539 0.62807,1.781856 0.62195,3.350439 -0.006,1.416367 -0.14984,2.275537 -0.49218,2.930037 -0.26639,0.509323 -0.91772,1.382615 -1.44739,1.940649 -0.52967,0.558033 -1.43928,1.268498 -2.02137,1.578811 -0.80599,0.429682 -1.53614,0.566276 -3.06233,0.572893 -1.56984,0.0068 -2.29569,-0.127746 -3.35043,-0.621079 -0.91805,-0.429392 -1.569,-0.57391 -2.04592,-0.45421 -0.54723,0.137346 -0.87249,0.562361 -1.49437,1.952684 -0.43719,0.97742 -1.17458,2.178657 -1.63863,2.669427 -0.46405,0.49076 -1.43905,1.17421 -2.16665,1.51877 -0.9692,0.45897 -1.78274,0.62647 -3.04271,0.62647 z m 0.39688,-5.456963 c 0.29104,-0.08738 0.67147,-0.272536 0.84539,-0.411447 0.17393,-0.13891 0.50535,-0.82196 0.7365,-1.517888 0.23115,-0.695929 0.84635,-1.763089 1.36709,-2.371467 0.52075,-0.608378 1.55855,-1.421344 2.30621,-1.806591 1.08898,-0.561116 1.72781,-0.700554 3.21147,-0.700972 1.39062,-3.91e-4 2.12963,0.143806 2.96603,0.578738 0.61266,0.318592 1.43672,0.579258 1.83125,0.579258 0.39452,0 0.93504,-0.197047 1.20116,-0.437882 0.26612,-0.240835 0.48386,-0.781359 0.48386,-1.201165 0,-0.419806 -0.26067,-1.264556 -0.57926,-1.877222 -0.43494,-0.836392 -0.57913,-1.575401 -0.57874,-2.966022 4.2e-4,-1.487037 0.1396,-2.122027 0.70613,-3.221657 0.38809,-0.753266 1.17532,-1.765297 1.7494,-2.248959 0.57408,-0.483661 1.67785,-1.122949 2.45281,-1.420639 0.96761,-0.371691 1.51716,-0.765411 1.7542,-1.256771 0.28383,-0.588374 0.28383,-0.842658 0,-1.431032 -0.23704,-0.491359 -0.78659,-0.88508 -1.7542,-1.256771 -0.77496,-0.29769 -1.87873,-0.936978 -2.45281,-1.420639 -0.57408,-0.483662 -1.36131,-1.495693 -1.7494,-2.248959 -0.56653,-1.099629 -0.70571,-1.73462 -0.70613,-3.221657 -3.9e-4,-1.390621 0.1438,-2.12963 0.57874,-2.966022 0.31859,-0.612666 0.57926,-1.436728 0.57926,-1.831249 0,-0.394522 -0.19705,-0.935046 -0.43789,-1.201166 -0.24083,-0.26612 -0.78136,-0.483854 -1.20116,-0.483854 -0.41981,0 -1.26456,0.260666 -1.87722,0.579259 -0.8364,0.434931 -1.57541,0.579128 -2.96603,0.578737 -1.48703,-4.19e-4 -2.12202,-0.139598 -3.22165,-0.706132 -0.75327,-0.388086 -1.7653,-1.175315 -2.24896,-1.749399 -0.48366,-0.574083 -1.12295,-1.67785 -1.42064,-2.452814 -0.37169,-0.967607 -0.76541,-1.51716 -1.25677,-1.754193 -0.58838,-0.283833 -0.84266,-0.283833 -1.43103,0 -0.49136,0.237033 -0.88508,0.786586 -1.25678,1.754193 -0.29769,0.774964 -0.93697,1.878731 -1.42063,2.452814 -0.48367,0.574084 -1.4957,1.361313 -2.24896,1.749399 -1.09963,0.566534 -1.73462,0.705713 -3.22166,0.706132 -1.39062,3.91e-4 -2.12963,-0.143806 -2.96602,-0.578737 -0.61267,-0.318593 -1.43673,-0.579259 -1.83125,-0.579259 -0.39452,0 -0.93505,0.197047 -1.20117,0.437882 -0.26612,0.240835 -0.48385,0.78136 -0.48385,1.201165 0,0.419806 0.26066,1.264556 0.57926,1.877222 0.43493,0.836392 0.57913,1.575401 0.57873,2.966022 -4.1e-4,1.487037 -0.13959,2.122028 -0.70613,3.221657 -0.38808,0.753266 -1.17531,1.765297 -1.7494,2.248959 -0.57408,0.483661 -1.67785,1.122949 -2.45281,1.420639 -0.96761,0.371691 -1.51716,0.765412 -1.75419,1.256771 -0.28384,0.588374 -0.28384,0.842658 0,1.431032 0.23703,0.49136 0.78658,0.88508 1.75419,1.256771 0.77496,0.29769 1.87873,0.936978 2.45281,1.420639 0.57409,0.483662 1.36132,1.495693 1.7494,2.248959 0.56654,1.09963 0.70572,1.73462 0.70613,3.221657 4e-4,1.390621 -0.1438,2.12963 -0.57873,2.966022 -0.3186,0.612666 -0.57926,1.436729 -0.57926,1.83125 0,0.394521 0.19705,0.935045 0.43788,1.201165 0.24084,0.26612 0.78136,0.483854 1.20117,0.483854 0.4198,0 1.26455,-0.260666 1.87722,-0.579258 0.83639,-0.434932 1.5754,-0.579129 2.96602,-0.578738 1.48704,4.19e-4 2.12203,0.139598 3.22166,0.706132 0.75326,0.388086 1.76529,1.175315 2.24896,1.749399 0.48366,0.574083 1.12312,1.677132 1.42102,2.45122 0.34283,0.890819 0.77986,1.527288 1.19063,1.733964 0.35694,0.179593 0.88711,0.255036 1.17815,0.16765 z m 0,-10.491563 c -1.46305,0.04491 -2.78934,-0.06205 -3.43959,-0.277389 -0.58208,-0.192768 -1.5501,-0.603377 -2.15114,-0.912466 -0.60105,-0.309089 -1.66287,-1.132035 -2.35961,-1.82877 -0.70114,-0.701145 -1.63088,-2.035046 -2.08218,-2.987339 -0.7498,-1.582123 -0.8154,-1.944064 -0.8154,-4.498675 0,-2.554611 0.0656,-2.916552 0.8154,-4.498675 0.45955,-0.969698 1.38294,-2.288096 2.1159,-3.021062 0.73297,-0.732966 2.05137,-1.656353 3.02107,-2.115908 1.58212,-0.749794 1.94406,-0.815397 4.49867,-0.815397 2.55461,0 2.91655,0.0656 4.49868,0.815397 0.96969,0.459555 2.28809,1.382942 3.02106,2.115908 0.73296,0.732966 1.65635,2.051364 2.11591,3.021062 0.74979,1.582123 0.81539,1.944064 0.81539,4.498675 0,2.554611 -0.0656,2.916552 -0.81539,4.498675 -0.45956,0.969698 -1.38295,2.288096 -2.11591,3.021062 -0.74551,0.745513 -2.03477,1.644325 -3.02106,2.106159 -1.4509,0.679383 -2.09375,0.817102 -4.1018,0.878743 z m -0.50507,-5.230672 c 0.15877,0.0097 0.86089,-0.154512 1.56027,-0.364994 0.69937,-0.210481 1.67562,-0.774293 2.16943,-1.252914 0.56841,-0.550927 1.04642,-1.381301 1.30277,-2.26314 0.36353,-1.250469 0.36353,-1.535369 0,-2.785837 -0.25635,-0.88184 -0.73436,-1.712214 -1.30277,-2.26314 -0.49381,-0.478622 -1.4809,-1.046444 -2.19353,-1.261827 -1.05457,-0.318731 -1.53677,-0.33407 -2.59119,-0.08243 -0.80557,0.192252 -1.6819,0.658257 -2.31722,1.232234 -0.72649,0.656337 -1.14121,1.334097 -1.43525,2.345569 -0.37257,1.281605 -0.37342,1.560484 -0.009,2.815429 0.25688,0.883653 0.73441,1.712258 1.3061,2.266362 0.49564,0.480395 1.4232,1.036242 2.06123,1.235216 0.63804,0.198974 1.28998,0.369736 1.44876,0.37947 z"
       id="path1" /></g></svg>
